<svg width="428" height="72" viewBox="0 0 428 72" fill="none" xmlns="http://www.w3.org/2000/svg">
<path fill-rule="evenodd" clip-rule="evenodd" d="M18.611 2.88011L35.6399 36.9379L52.6688 2.88C63.7564 8.92187 71.28 20.6805 71.28 34.1963C71.28 53.8797 55.3234 69.8363 35.64 69.8363C15.9566 69.8363 0 53.8797 0 34.1963C0 20.6806 7.52348 8.92201 18.611 2.88011Z" fill="#7C5DFA"/>
<path d="M121.934 17V57H113.477V17H121.934ZM137.056 39.6563V57H128.735V27H136.665V32.293H137.017C137.681 30.5482 138.794 29.168 140.356 28.1523C141.919 27.1237 143.813 26.6094 146.04 26.6094C148.123 26.6094 149.94 27.0651 151.489 27.9766C153.039 28.888 154.243 30.1901 155.103 31.8828C155.962 33.5625 156.392 35.5677 156.392 37.8984V57H148.071V39.3828C148.084 37.5469 147.616 36.1146 146.665 35.0859C145.715 34.0443 144.406 33.5234 142.739 33.5234C141.619 33.5234 140.63 33.7643 139.771 34.2461C138.924 34.7279 138.26 35.431 137.778 36.3555C137.31 37.2669 137.069 38.3672 137.056 39.6563ZM189.844 27L179.355 57H169.98L159.492 27H168.281L174.512 48.4648H174.824L181.035 27H189.844ZM206.689 57.5859C203.656 57.5859 201.032 56.9414 198.818 55.6523C196.618 54.3503 194.919 52.5404 193.721 50.2227C192.523 47.8919 191.924 45.1901 191.924 42.1172C191.924 39.0182 192.523 36.3099 193.721 33.9922C194.919 31.6615 196.618 29.8516 198.818 28.5625C201.032 27.2604 203.656 26.6094 206.689 26.6094C209.723 26.6094 212.34 27.2604 214.541 28.5625C216.755 29.8516 218.46 31.6615 219.658 33.9922C220.856 36.3099 221.455 39.0182 221.455 42.1172C221.455 45.1901 220.856 47.8919 219.658 50.2227C218.46 52.5404 216.755 54.3503 214.541 55.6523C212.34 56.9414 209.723 57.5859 206.689 57.5859ZM206.729 51.1406C208.109 51.1406 209.261 50.75 210.186 49.9688C211.11 49.1745 211.807 48.0937 212.275 46.7266C212.757 45.3594 212.998 43.8034 212.998 42.0586C212.998 40.3138 212.757 38.7578 212.275 37.3906C211.807 36.0234 211.11 34.9427 210.186 34.1484C209.261 33.3542 208.109 32.957 206.729 32.957C205.335 32.957 204.163 33.3542 203.213 34.1484C202.275 34.9427 201.566 36.0234 201.084 37.3906C200.615 38.7578 200.381 40.3138 200.381 42.0586C200.381 43.8034 200.615 45.3594 201.084 46.7266C201.566 48.0937 202.275 49.1745 203.213 49.9688C204.163 50.75 205.335 51.1406 206.729 51.1406ZM226.865 57V27H235.186V57H226.865ZM231.045 23.1328C229.808 23.1328 228.747 22.7227 227.861 21.9023C226.989 21.069 226.553 20.0729 226.553 18.9141C226.553 17.7682 226.989 16.7852 227.861 15.9648C228.747 15.1315 229.808 14.7148 231.045 14.7148C232.282 14.7148 233.337 15.1315 234.209 15.9648C235.094 16.7852 235.537 17.7682 235.537 18.9141C235.537 20.0729 235.094 21.069 234.209 21.9023C233.337 22.7227 232.282 23.1328 231.045 23.1328ZM255.405 57.5859C252.332 57.5859 249.689 56.9349 247.476 55.6328C245.275 54.3177 243.582 52.4948 242.397 50.1641C241.226 47.8333 240.64 45.151 240.64 42.1172C240.64 39.0443 241.232 36.349 242.417 34.0312C243.615 31.7005 245.314 29.8841 247.515 28.582C249.715 27.2669 252.332 26.6094 255.366 26.6094C257.983 26.6094 260.275 27.0846 262.241 28.0352C264.207 28.9857 265.763 30.3203 266.909 32.0391C268.055 33.7578 268.687 35.776 268.804 38.0938H260.952C260.731 36.5964 260.145 35.3919 259.194 34.4805C258.257 33.556 257.026 33.0937 255.503 33.0937C254.214 33.0937 253.088 33.4453 252.124 34.1484C251.174 34.8385 250.431 35.8477 249.897 37.1758C249.364 38.5039 249.097 40.112 249.097 42C249.097 43.9141 249.357 45.5417 249.878 46.8828C250.412 48.224 251.16 49.2461 252.124 49.9492C253.088 50.6523 254.214 51.0039 255.503 51.0039C256.453 51.0039 257.306 50.8086 258.062 50.418C258.83 50.0273 259.461 49.4609 259.956 48.7187C260.464 47.9635 260.796 47.0586 260.952 46.0039H268.804C268.674 48.2956 268.049 50.3138 266.929 52.0586C265.822 53.7904 264.292 55.1445 262.339 56.1211C260.386 57.0977 258.075 57.5859 255.405 57.5859ZM287.803 57.5859C284.717 57.5859 282.061 56.9609 279.834 55.7109C277.62 54.4479 275.915 52.6641 274.717 50.3594C273.519 48.0417 272.92 45.3008 272.92 42.1367C272.92 39.0508 273.519 36.3424 274.717 34.0117C275.915 31.681 277.601 29.8646 279.775 28.5625C281.963 27.2604 284.528 26.6094 287.471 26.6094C289.45 26.6094 291.292 26.9284 292.998 27.5664C294.717 28.1914 296.214 29.1354 297.49 30.3984C298.779 31.6615 299.782 33.25 300.498 35.1641C301.214 37.0651 301.572 39.2917 301.572 41.8437V44.1289H276.24V38.9727H293.74C293.74 37.7747 293.48 36.7135 292.959 35.7891C292.438 34.8646 291.715 34.1419 290.791 33.6211C289.88 33.0872 288.818 32.8203 287.607 32.8203C286.344 32.8203 285.225 33.1133 284.248 33.6992C283.285 34.2721 282.529 35.0469 281.982 36.0234C281.436 36.987 281.156 38.0612 281.143 39.2461V44.1484C281.143 45.6328 281.416 46.9154 281.963 47.9961C282.523 49.0768 283.311 49.9102 284.326 50.4961C285.342 51.082 286.546 51.375 287.939 51.375C288.864 51.375 289.71 51.2448 290.479 50.9844C291.247 50.724 291.904 50.3333 292.451 49.8125C292.998 49.2917 293.415 48.6536 293.701 47.8984L301.396 48.4062C301.006 50.2552 300.205 51.8698 298.994 53.25C297.796 54.6172 296.247 55.6849 294.346 56.4531C292.458 57.2083 290.277 57.5859 287.803 57.5859ZM326.782 57H317.72L331.528 17H342.427L356.216 57H347.153L337.134 26.1406H336.821L326.782 57ZM326.216 41.2773H347.622V47.8789H326.216V41.2773ZM360.874 68.25V27H369.077V32.0391H369.448C369.813 31.2318 370.34 30.4115 371.03 29.5781C371.733 28.7318 372.645 28.0286 373.765 27.4688C374.897 26.8958 376.304 26.6094 377.983 26.6094C380.171 26.6094 382.189 27.1823 384.038 28.3281C385.887 29.4609 387.365 31.1732 388.472 33.4648C389.578 35.7435 390.132 38.6016 390.132 42.0391C390.132 45.3854 389.591 48.2109 388.511 50.5156C387.443 52.8073 385.985 54.5456 384.136 55.7305C382.3 56.9023 380.243 57.4883 377.964 57.4883C376.349 57.4883 374.976 57.2214 373.843 56.6875C372.723 56.1536 371.805 55.4831 371.089 54.6758C370.373 53.8555 369.826 53.0286 369.448 52.1953H369.194V68.25H360.874ZM369.019 42C369.019 43.7839 369.266 45.3398 369.761 46.668C370.256 47.9961 370.972 49.0312 371.909 49.7734C372.847 50.5026 373.986 50.8672 375.327 50.8672C376.681 50.8672 377.827 50.4961 378.765 49.7539C379.702 48.9987 380.412 47.957 380.894 46.6289C381.388 45.2878 381.636 43.7448 381.636 42C381.636 40.2682 381.395 38.7448 380.913 37.4297C380.431 36.1146 379.722 35.0859 378.784 34.3437C377.847 33.6016 376.694 33.2305 375.327 33.2305C373.973 33.2305 372.827 33.5885 371.89 34.3047C370.965 35.0208 370.256 36.0365 369.761 37.3516C369.266 38.6667 369.019 40.2161 369.019 42ZM395.679 68.25V27H403.882V32.0391H404.253C404.618 31.2318 405.145 30.4115 405.835 29.5781C406.538 28.7318 407.45 28.0286 408.569 27.4688C409.702 26.8958 411.108 26.6094 412.788 26.6094C414.976 26.6094 416.994 27.1823 418.843 28.3281C420.692 29.4609 422.17 31.1732 423.276 33.4648C424.383 35.7435 424.937 38.6016 424.937 42.0391C424.937 45.3854 424.396 48.2109 423.315 50.5156C422.248 52.8073 420.789 54.5456 418.94 55.7305C417.104 56.9023 415.047 57.4883 412.769 57.4883C411.154 57.4883 409.78 57.2214 408.647 56.6875C407.528 56.1536 406.61 55.4831 405.894 54.6758C405.177 53.8555 404.631 53.0286 404.253 52.1953H403.999V68.25H395.679ZM403.823 42C403.823 43.7839 404.071 45.3398 404.565 46.668C405.06 47.9961 405.776 49.0312 406.714 49.7734C407.651 50.5026 408.791 50.8672 410.132 50.8672C411.486 50.8672 412.632 50.4961 413.569 49.7539C414.507 48.9987 415.216 47.957 415.698 46.6289C416.193 45.2878 416.44 43.7448 416.44 42C416.44 40.2682 416.2 38.7448 415.718 37.4297C415.236 36.1146 414.526 35.0859 413.589 34.3437C412.651 33.6016 411.499 33.2305 410.132 33.2305C408.778 33.2305 407.632 33.5885 406.694 34.3047C405.77 35.0208 405.06 36.0365 404.565 37.3516C404.071 38.6667 403.823 40.2161 403.823 42Z" fill="#0C0E16"/>
</svg>
